<svg width="200" height="200" viewBox="0 0 200 200" fill="none" xmlns="http://www.w3.org/2000/svg">
<g clip-path="url(#clip0)">
<path d="M189.386 61.7086H155.47C149.617 61.7086 144.855 66.4727 144.855 72.3289V111.366H132.169C132.874 108.803 133.136 105.78 132.964 102.262V102.261C132.689 87.3945 129.991 74.8648 124.945 65.0203C121.027 57.377 116.455 52.7945 112.532 50.0551C117.137 45.3203 119.799 38.5848 119.799 30.8164C119.799 16.8395 108.65 5.46875 94.9453 5.46875C81.241 5.46875 70.0914 16.8395 70.0914 30.8164C70.0914 32.4348 71.4031 33.7461 73.0211 33.7461H75.0117C74.8285 34.8516 74.7309 35.9781 74.7309 37.1223C74.7309 46.9723 81.7691 55.2047 91.0746 57.0496C90.0992 60.6715 89.6145 64.9422 89.6164 69.7937L82.3094 76.0785L64.5301 77.5164L44.0211 70.7367C42.1414 70.1117 40.0109 69.4055 38.1625 70.7383C36.341 72.0527 36.341 74.3539 36.341 75.1098V90.3578C36.341 91.9762 37.6527 93.2875 39.2707 93.2875H42.7586L37.409 111.773C36.9594 113.327 37.8547 114.952 39.409 115.402C40.9641 115.854 42.5879 114.956 43.0379 113.402L48.859 93.2875H57.1879C46.8285 124.878 52.7395 145.965 61.825 167.305H56.5586L34.6238 142.779L39.2621 126.756C39.7121 125.202 38.8168 123.577 37.2625 123.127C35.7082 122.678 34.0836 123.573 33.6336 125.127L29.1973 140.454C15.4762 140.225 3.20274 149.685 0.0750043 163.296C-0.287105 164.872 0.696879 166.444 2.27305 166.807L6.43204 167.764C5.36954 178.8 12.6371 189.212 23.7207 191.763C25.4039 192.151 27.1016 192.342 28.7875 192.342C32.9453 192.342 37.0301 191.177 40.643 188.912C44.8832 186.255 48.0426 182.349 49.7523 177.732L53.034 178.488C54.0117 178.714 54.9391 178.828 55.8656 178.329C56.7277 177.865 57.3008 177.027 57.5156 176.082C57.7219 175.123 57.8789 174.148 57.9879 173.164H119.261C121.22 185.347 131.585 194.53 143.964 194.53C156.344 194.53 166.709 185.347 168.669 173.164H170.905C170.905 173.164 171.348 173.17 171.45 173.17C172.288 173.17 173.498 173.077 174.491 172.066C174.989 171.56 175.572 170.655 175.527 169.217C175.445 166.466 175.032 163.807 174.327 161.281C176.661 147.114 174.416 138.485 171.087 131.732C173.191 130.353 174.587 127.977 174.587 125.277V117.225H189.385C195.238 117.225 199.999 112.461 199.999 106.604V72.3285C200 66.4727 195.239 61.7086 189.386 61.7086ZM37.5316 183.948C33.7813 186.298 29.3438 187.046 25.0359 186.054H25.0356C17.1066 184.229 11.8168 176.958 12.2023 169.096L43.9809 176.411C42.666 179.506 40.4414 182.125 37.5316 183.948ZM52.191 172.282L6.61875 161.795C10.1356 152.164 19.5996 145.789 29.9445 146.338L52.2691 171.299C52.2496 171.629 52.2238 171.956 52.191 172.282ZM96.443 121.229C95.5926 123.472 95.5926 126.237 95.5926 130.065V141.12H84.8648V125.953C84.8648 108.805 94.2234 105.75 98.4234 105.245H127.146C127.03 109.137 126.152 111.904 124.485 113.659C122.542 115.705 119.217 116.702 114.32 116.707L103.804 116.718C100.054 116.718 97.5777 118.236 96.443 121.229ZM95.5926 146.979V153.975C95.566 153.975 95.5387 153.975 95.5106 153.975H74.7008C74.9348 151.805 75.6106 150.126 76.7203 148.964C78.3711 147.237 80.6961 146.979 81.9352 146.979H95.5926ZM127.016 99.3863H100.373C99.3031 96.0195 98.3492 92.3328 97.5648 88.5437L105.665 83.2859C110.087 80.4145 112.388 76.357 111.977 72.1535C111.613 68.4273 109.079 65.0988 105.523 63.6742C102.275 62.3734 98.7797 62.782 95.6902 64.7574C95.9449 61.9551 96.4192 59.4535 97.1051 57.3301C98.3539 57.2012 99.5941 56.957 100.812 56.5988C103.291 56.023 105.582 55.1055 107.651 53.8887C113.293 57.2598 125.704 68.1941 127.016 99.3863ZM76.1652 27.8871C77.5469 18.5262 85.4422 11.3285 94.9453 11.3285C105.419 11.3285 113.94 20.0711 113.94 30.8168C113.94 39.5566 109.749 46.6008 102.991 49.7008V34.2855C102.991 31.6164 101.97 28.3422 97.1047 27.8992C97.0164 27.891 96.9277 27.8871 96.8391 27.8871H76.1652ZM80.5906 37.1227C80.5906 35.9664 80.7223 34.8371 80.9813 33.7465H96.6953C96.8762 33.766 97.0082 33.7871 97.1027 33.8062C97.118 33.9148 97.1313 34.0711 97.1313 34.2855V51.4246C96.4332 51.5273 95.7309 51.5793 95.0289 51.5797C95.0223 51.5797 95.0156 51.5797 95.0094 51.5797C87.0578 51.5723 80.5906 45.0898 80.5906 37.1227ZM76.7926 82.4039L83.7316 81.8426C84.35 81.793 84.9363 81.548 85.407 81.1437L97.9305 70.3723L97.9324 70.3703C99.1434 69.327 100.436 68.7918 101.695 68.7918C102.255 68.7918 102.808 68.898 103.345 69.1129C104.893 69.7328 105.992 71.15 106.146 72.7227C106.339 74.702 105.035 76.7082 102.475 78.3707L88.5203 87.4285H76.7934V82.4039H76.7926ZM64.4113 83.4055L70.9332 82.8781V87.4293H63.3547C62.3723 87.4293 62.1328 86.6129 62.1047 85.9281C62.0887 85.5398 62.1254 83.593 64.4113 83.4055ZM57.4773 81.3828C56.5949 82.8297 56.1828 84.5223 56.2504 86.168C56.268 86.5941 56.3223 87.0047 56.3981 87.4047C56.3981 87.4129 56.3934 87.4211 56.3949 87.4289H42.2012V76.3066L57.4887 81.3602C57.484 81.368 57.4816 81.3754 57.4773 81.3828ZM63.3711 93.2883H89.3871C89.9531 93.2883 90.5074 93.1242 90.982 92.816L92.3082 91.9551C92.9461 94.7746 93.6727 97.5184 94.4641 100.11C88.4891 101.873 79.0051 107.573 79.0051 125.953V141.414C76.9496 141.829 74.518 142.787 72.484 144.916C70.3399 147.16 69.1152 150.2 68.8215 153.974H62.9113C56.9559 136.811 54.691 118.547 63.3711 93.2883ZM68.2 167.295C67.1172 164.805 66.0734 162.324 65.0906 159.834H95.5102C99.4527 159.834 101.452 158.039 101.452 154.5V144.05V132.994H124.576C126.195 132.994 127.506 131.683 127.506 130.064C127.506 128.446 126.195 127.135 124.576 127.135H101.473C101.51 125.471 101.617 124.11 101.922 123.306C102.07 122.915 102.198 122.577 103.807 122.577L114.326 122.566C120.914 122.56 125.627 120.966 128.734 117.694C128.878 117.542 129.014 117.383 129.15 117.225H147.785H168.729V125.277C168.729 126.284 167.88 127.135 166.875 127.135H137.709C136.091 127.135 134.779 128.446 134.779 130.064C134.779 131.683 136.091 132.994 137.709 132.994H165.154C167.469 137.292 169.552 142.64 169.428 151.09C163.632 143.039 154.249 137.862 143.6 137.862C135.047 137.862 127.022 141.216 121.002 147.308C115.661 152.713 112.452 159.729 111.792 167.305L68.2 167.295ZM143.965 188.671C134.806 188.671 127.082 182.073 125.213 173.165H162.716C160.847 182.072 153.123 188.671 143.965 188.671ZM166.045 167.306H121.886H117.677C119.115 154.059 130.192 143.721 143.6 143.721C155.371 143.721 165.257 151.483 168.53 162.349C168.541 162.384 168.552 162.418 168.563 162.452C169.026 164.011 169.353 165.634 169.53 167.306H166.045ZM194.141 106.605C194.141 109.23 192.007 111.366 189.386 111.366H150.714V96.2363H194.141V106.605ZM194.141 90.377H150.714V84.1461H194.141V90.377ZM194.141 78.2867H150.714V72.3289C150.714 69.7035 152.848 67.568 155.47 67.568H189.386C192.007 67.568 194.141 69.7039 194.141 72.3289V78.2867Z" fill="#eb392e"/>
</g>
<defs>
<clipPath id="clip0">
<rect width="200" height="200" fill="#eb392e"/>
</clipPath>
</defs>
</svg>
